<?xml version="1.0" encoding="utf-8"?>
<!-- Generator: Adobe Illustrator 24.1.2, SVG Export Plug-In . SVG Version: 6.00 Build 0)  -->
<svg version="1.1" id="Livello_1" xmlns="http://www.w3.org/2000/svg" xmlns:xlink="http://www.w3.org/1999/xlink" x="0px" y="0px"
	 viewBox="0 0 14.7 14.5" style="enable-background:new 0 0 14.7 14.5;" xml:space="preserve">
<style type="text/css">
	.st0{fill:#FFFFFF;}
</style>
<path class="st0" d="M6.1,2.4l3.5,3.4H1.1C0.5,5.8,0,6.3,0,6.9l0,0v0.7c0,0.6,0.5,1.1,1.1,1.1l0,0h8.5l-3.5,3.4
	c-0.4,0.4-0.5,1.1,0,1.6l0,0l0.5,0.5c0.4,0.4,1.1,0.4,1.6,0l0,0l6.2-6.1c0.4-0.4,0.4-1.1,0-1.6l0,0L8.2,0.3c-0.4-0.4-1.1-0.4-1.6,0
	l0,0L6.1,0.8C5.6,1.2,5.6,1.9,6.1,2.4C6,2.4,6.1,2.4,6.1,2.4L6.1,2.4z"/>
</svg>
