<svg xmlns="http://www.w3.org/2000/svg" width="13.286" height="9.49" viewBox="0 0 13.286 9.49"><defs><style>.a{fill:#ff337a;}</style></defs><g transform="translate(-0.529 -1.587)"><g transform="translate(0.529 1.587)"><path class="a" d="M-88.841,90.549a.479.479,0,0,0-.475.475v8.541a.475.475,0,0,0,.475.474H-76.5a.449.449,0,0,0,.475-.474.455.455,0,0,0-.475-.475H-88.367V91.024a.468.468,0,0,0-.475-.475Z" transform="translate(89.316 -90.549)"/><path class="a" d="M-86.779,95.141v-.936a.455.455,0,0,0-.475-.481.455.455,0,0,0-.474.481v.936a.474.474,0,0,0,.479.481A.475.475,0,0,0-86.779,95.141Z" transform="translate(90.575 -88.03)"/><path class="a" d="M-85.192,96.821V92.089a.455.455,0,0,0-.475-.481.455.455,0,0,0-.475.481v4.732a.474.474,0,0,0,.479.481.475.475,0,0,0,.47-.481Z" transform="translate(91.835 -89.71)"/><path class="a" d="M-83.6,95.981V93.147a.455.455,0,0,0-.475-.481.455.455,0,0,0-.475.481v2.834a.474.474,0,0,0,.479.481A.475.475,0,0,0-83.6,95.981Z" transform="translate(93.094 -88.87)"/><path class="a" d="M-82.017,97.66v-6.63a.455.455,0,0,0-.475-.481.455.455,0,0,0-.474.481v6.63a.474.474,0,0,0,.479.481A.475.475,0,0,0-82.017,97.66Z" transform="translate(94.354 -90.549)"/></g></g></svg>