<svg id="Livello_1" data-name="Livello 1" xmlns="http://www.w3.org/2000/svg" viewBox="0 0 11.64 11.66"><path id="Icon_metro-unlink" data-name="Icon metro-unlink" d="M3.07,8.88,1.28,10.67a.23.23,0,0,1-.16.06A.23.23,0,0,1,1,10.67a.22.22,0,0,1,0-.32L2.75,8.56a.22.22,0,0,1,.32,0,.24.24,0,0,1,0,.32Zm1.18.29V11.4a.23.23,0,0,1-.45,0V9.17a.23.23,0,0,1,.45,0ZM2.68,7.6a.2.2,0,0,1-.2.22H.22A.21.21,0,0,1,0,7.61a.22.22,0,0,1,.2-.24H2.46a.21.21,0,0,1,.22.21v0Zm8.83.89a1.89,1.89,0,0,1-.59,1.42l-1,1a2,2,0,0,1-2.84,0L4.72,8.57a1.68,1.68,0,0,1-.3-.39l1.67-.12L8,10a.71.71,0,0,0,.48.19A.62.62,0,0,0,9,10l1-1a.63.63,0,0,0,.2-.46A.66.66,0,0,0,10,8L8.06,6.1l.13-1.67a2.19,2.19,0,0,1,.39.29l2.35,2.35a2,2,0,0,1,.59,1.43ZM7.2,3.44l-1.67.12L3.63,1.65a.65.65,0,0,0-.47-.2.71.71,0,0,0-.48.19l-1,1a.65.65,0,0,0,0,.94L3.56,5.52,3.44,7.2a1.85,1.85,0,0,1-.39-.3L.7,4.56A2,2,0,0,1,.11,3.13a1.92,1.92,0,0,1,.6-1.42l1-1A1.94,1.94,0,0,1,3.15.12,1.89,1.89,0,0,1,4.57.71L6.91,3.05a2.19,2.19,0,0,1,.29.39ZM11.62,4a.21.21,0,0,1-.2.23H9.17a.23.23,0,1,1,0-.45H11.4a.23.23,0,0,1,.23.21V4ZM7.82.22V2.46a.22.22,0,1,1-.44,0V.22A.21.21,0,0,1,7.59,0a.21.21,0,0,1,.23.2,0,0,0,0,1,0,0Zm2.85,1.06L8.88,3.07a.23.23,0,1,1-.32-.32L10.35,1a.22.22,0,0,1,.32,0,.24.24,0,0,1,0,.32Z" transform="translate(0.01 0.01)" fill="#9fabbc"/></svg>