<svg xmlns="http://www.w3.org/2000/svg" viewBox="0 0 10.626 10.626">
  <defs>
    <style>
      .cls-1 {
        fill: #9fabbc;
      }
    </style>
  </defs>
  <path id="Path_467" data-name="Path 467" class="cls-1" d="M11.386,3.416H10.058V2.752a.664.664,0,1,0-1.328,0v.664H6.073V2.752a.664.664,0,0,0-1.328,0v.664H3.416A1.329,1.329,0,0,0,2.088,4.745v6.641a1.329,1.329,0,0,0,1.328,1.328h7.97a1.329,1.329,0,0,0,1.328-1.328V4.745A1.328,1.328,0,0,0,11.386,3.416Zm0,7.97H3.416V5.74h7.97Z" transform="translate(-2.088 -2.088)"/>
</svg>
