<?xml version="1.0" encoding="utf-8"?>
<!-- Generator: Adobe Illustrator 24.1.0, SVG Export Plug-In . SVG Version: 6.00 Build 0)  -->
<svg version="1.1" id="Livello_1" xmlns="http://www.w3.org/2000/svg" xmlns:xlink="http://www.w3.org/1999/xlink" x="0px" y="0px"
	 viewBox="0 0 15 15" style="enable-background:new 0 0 15 15;" xml:space="preserve">
<style type="text/css">
	.st0{fill:#9FABBC;}
</style>
<g id="Icon_feather-clock" transform="translate(-2 -2)">
	<g id="Path_551">
		<path class="st0" d="M9.5,17C5.4,17,2,13.6,2,9.5C2,5.4,5.4,2,9.5,2C13.6,2,17,5.4,17,9.5C17,13.6,13.6,17,9.5,17z M9.5,4
			C6.5,4,4,6.5,4,9.5S6.5,15,9.5,15S15,12.5,15,9.5S12.5,4,9.5,4z"/>
	</g>
	<g id="Path_552">
		<path class="st0" d="M12.1,11.3c-0.1,0-0.2,0-0.2-0.1L9.3,9.9C9.1,9.8,9,9.7,9,9.5V5.6c0-0.3,0.2-0.5,0.5-0.5S10,5.3,10,5.6v3.6
			l2.3,1.2c0.2,0.1,0.3,0.4,0.2,0.7C12.4,11.2,12.3,11.3,12.1,11.3z"/>
	</g>
</g>
</svg>
