<svg xmlns="http://www.w3.org/2000/svg" width="20" height="20" viewBox="0 0 20 20">
  <g id="Group_1577" data-name="Group 1577" transform="translate(-1007 -396.62)">
    <path id="Path_885" data-name="Path 885" d="M6.722,4.5H22.278A2.222,2.222,0,0,1,24.5,6.722V22.278A2.222,2.222,0,0,1,22.278,24.5H6.722A2.222,2.222,0,0,1,4.5,22.278V6.722A2.222,2.222,0,0,1,6.722,4.5Z" transform="translate(1002.5 392.12)" fill="#edf0f4"/>
    <path id="Icon_material-close" data-name="Icon material-close" d="M15.88,8.344,15.036,7.5,11.69,10.846,8.344,7.5,7.5,8.344l3.346,3.346L7.5,15.036l.844.844,3.346-3.346,3.346,3.346.844-.844L12.534,11.69Z" transform="translate(1005.5 395.12)" fill="#889eac"/>
  </g>
</svg>
