<svg xmlns="http://www.w3.org/2000/svg" width="12.901" height="12.901" viewBox="0 0 12.901 12.901"><defs><style>.a{fill:red;}</style></defs><path class="a" d="M17.182,16.479l-1.634-1.634,1.634-1.634a.5.5,0,0,0-.7-.7l-1.634,1.634-1.634-1.634a.5.5,0,1,0-.7.7l1.634,1.634-1.634,1.634a.479.479,0,0,0,0,.7.492.492,0,0,0,.7,0l1.634-1.634,1.634,1.634a.5.5,0,0,0,.7,0A.492.492,0,0,0,17.182,16.479Z" transform="translate(-8.397 -8.394)"/><path class="a" d="M9.826,4.243A5.58,5.58,0,1,1,5.878,5.878,5.545,5.545,0,0,1,9.826,4.243m0-.868a6.451,6.451,0,1,0,6.451,6.451A6.45,6.45,0,0,0,9.826,3.375Z" transform="translate(-3.375 -3.375)"/></svg>