<?xml version="1.0" encoding="utf-8"?>
<!-- Generator: Adobe Illustrator 24.2.0, SVG Export Plug-In . SVG Version: 6.00 Build 0)  -->
<svg version="1.1" id="Livello_1" xmlns="http://www.w3.org/2000/svg" xmlns:xlink="http://www.w3.org/1999/xlink" x="0px" y="0px"
	 viewBox="0 0 13 13" style="enable-background:new 0 0 13 13;" xml:space="preserve">
<style type="text/css">
	.st0{fill:#FF337A;}
</style>
<g id="Group_1642" transform="translate(-1043 -321)">
	<path id="Path_555" class="st0" d="M1049.5,321.9c3.1,0,5.6,2.5,5.6,5.6c0,3.1-2.5,5.6-5.6,5.6c-3.1,0-5.6-2.5-5.6-5.6
		c0-1.5,0.6-2.9,1.6-3.9C1046.6,322.5,1048,321.9,1049.5,321.9 M1049.5,321c-3.6,0-6.5,2.9-6.5,6.5s2.9,6.5,6.5,6.5s6.5-2.9,6.5-6.5
		C1056,323.9,1053.1,321,1049.5,321C1049.5,321,1049.5,321,1049.5,321z"/>
	<path id="Icon_feather-edit-2" class="st0" d="M1050.9,325c0.3-0.3,0.8-0.3,1.1,0c0.3,0.3,0.3,0.8,0,1.1l-3.7,3.7l-1.5,0.4l0.4-1.5
		L1050.9,325z"/>
</g>
</svg>
