<svg xmlns="http://www.w3.org/2000/svg" width="13.292" height="9.491" viewBox="0 0 13.292 9.491"><defs><style>.a{fill:#9fabbc;}</style></defs><path class="a" d="M.475,0A.479.479,0,0,0,0,.475V9.016a.475.475,0,0,0,.475.474H12.816a.449.449,0,0,0,.475-.421.469.469,0,0,0,0-.053.455.455,0,0,0-.434-.475.28.28,0,0,0-.041,0H.949V.475A.468.468,0,0,0,.488,0H.475Z"/><path class="a" d="M2.585,7.779a.5.5,0,0,1-.439-.737L4.206,3.22a.5.5,0,0,1,.665-.21L8.4,4.79l2.514-3.751a.5.5,0,1,1,.83.556L8.988,5.713a.5.5,0,0,1-.639.169L4.855,4.123,3.026,7.517A.5.5,0,0,1,2.585,7.779Z"/></svg>