<?xml version="1.0" encoding="utf-8"?>
<!-- Generator: Adobe Illustrator 22.1.0, SVG Export Plug-In . SVG Version: 6.00 Build 0)  -->
<svg version="1.1" id="Livello_1" xmlns="http://www.w3.org/2000/svg" xmlns:xlink="http://www.w3.org/1999/xlink" x="0px" y="0px"
	 viewBox="0 0 14.4 9.8" style="enable-background:new 0 0 14.4 9.8;" xml:space="preserve">
<style type="text/css">
	.st0{fill:#e62e6e;}
</style>
<g>
	<path class="st0" d="M9.3,6.8C9.1,6.8,9,6.9,9,7.1V9H0.8V0.8H9v1.9C9,2.9,9.1,3,9.3,3s0.4-0.2,0.4-0.4v-2c0-0.3-0.3-0.6-0.6-0.6
		H0.6C0.3,0.1,0,0.3,0,0.7v8.5c0,0.3,0.3,0.6,0.6,0.6h8.5c0.3,0,0.6-0.3,0.6-0.6v-2C9.7,6.9,9.5,6.8,9.3,6.8z"/>
	<path class="st0" d="M14.3,4.6l-2.9-2.9c-0.1-0.1-0.2-0.1-0.3-0.1c-0.1,0-0.2,0.1-0.3,0.3c0,0.1,0,0.3,0.1,0.3l2.3,2.3H7.6
		c-0.2,0-0.4,0.2-0.4,0.4c0,0.2,0.2,0.4,0.4,0.4h5.5l-2.3,2.3c-0.1,0.1-0.1,0.2-0.1,0.3c0,0.1,0.1,0.2,0.3,0.3c0,0,0.1,0,0.1,0
		c0.1,0,0.2,0,0.3-0.1l2.9-2.9C14.4,5,14.4,4.8,14.3,4.6z"/>
</g>
</svg>
