<svg xmlns="http://www.w3.org/2000/svg" width="11" height="11" viewBox="0 0 11 11"><defs><style>.a{fill:#9fabbc;}</style></defs><path class="a" d="M5.5.077A5.506,5.506,0,0,0,0,5.577H0L0,5.61a5.508,5.508,0,0,0,4.936,5.439c.185.018.372.028.562.028s.377-.01.562-.028A5.508,5.508,0,0,0,11,5.61l0-.033h0A5.506,5.506,0,0,0,5.5.077ZM9.061,2.858,6,4.694V1.128A4.469,4.469,0,0,1,9.061,2.858ZM5.5,10.077A4.488,4.488,0,0,1,5,1.128V5.577c0,.012.006.022.007.034a.52.52,0,0,0,.019.1A.491.491,0,0,0,5.06,5.8c.005.01.005.021.011.031s.021.017.029.029a.506.506,0,0,0,.127.122.472.472,0,0,0,.052.035.483.483,0,0,0,.221.057h0a.5.5,0,0,0,.23-.064c.008,0,.017,0,.025-.007l3.826-2.3A4.453,4.453,0,0,1,10,5.577,4.5,4.5,0,0,1,5.5,10.077Z" transform="translate(0 -0.077)"/></svg>