<svg xmlns="http://www.w3.org/2000/svg" width="12.9" height="12.902" viewBox="0 0 12.9 12.902"><defs><style>.a{fill:#ff337a;}</style></defs><path class="a" d="M-7161.549-532.1a6.458,6.458,0,0,1-6.451-6.451,6.458,6.458,0,0,1,6.451-6.451,6.457,6.457,0,0,1,6.449,6.451A6.457,6.457,0,0,1-7161.549-532.1Zm-2.807-6.947a.5.5,0,0,0-.361.141.487.487,0,0,0-.136.355.48.48,0,0,0,.5.495h2.31v2.312a.478.478,0,0,0,.493.5.492.492,0,0,0,.5-.5v-2.312h2.312a.5.5,0,0,0,.5-.495.489.489,0,0,0-.144-.351.489.489,0,0,0-.349-.146h-2.315v-2.31a.5.5,0,0,0-.495-.5.5.5,0,0,0-.5.5v2.31Z" transform="translate(7168 545)"/></svg>