<?xml version="1.0" encoding="utf-8"?>
<!-- Generator: Adobe Illustrator 22.1.0, SVG Export Plug-In . SVG Version: 6.00 Build 0)  -->
<svg version="1.1" id="Livello_1" xmlns="http://www.w3.org/2000/svg" xmlns:xlink="http://www.w3.org/1999/xlink" x="0px" y="0px"
	 viewBox="0 0 12 11.7" style="enable-background:new 0 0 12 11.7;" xml:space="preserve">
<style type="text/css">
	.st0{fill:#191919;}
</style>
<path class="st0" d="M10,3.5H9.9L2.4,0.4c-0.3-0.1-0.5,0-0.7,0.3C1.6,0.9,1.8,1.2,2,1.3l5.3,2.2H2c-1.1,0-2,0.9-2,2v0v4.2v0
	c0,0,0,0,0,0c0,1,0.8,1.8,1.8,2c0.1,0,0.2,0,0.2,0h8c0.1,0,0.1,0,0.2,0c1-0.1,1.8-0.9,1.8-2c0,0,0,0,0,0v0V5.5v0
	C12,4.4,11.1,3.5,10,3.5z M11,9.7c0,0.6-0.4,1-1,1H2c-0.6,0-1-0.4-1-1V5.5c0-0.6,0.4-1,1-1h8c0.6,0,1,0.4,1,1V9.7z"/>
</svg>
