<svg xmlns="http://www.w3.org/2000/svg" width="22.1" height="22.105" viewBox="0 0 22.1 22.105"><defs><style>.a{fill:#00ef88;}</style></defs><g transform="translate(-3.938 -3.938)"><path class="a" d="M14.99,26.043A11.053,11.053,0,0,1,7.32,7.032.887.887,0,1,1,8.552,8.309a9.276,9.276,0,1,0,7.322-2.553v3.46a.89.89,0,1,1-1.779,0V4.827a.889.889,0,0,1,.89-.89,11.053,11.053,0,0,1,.006,22.105Z"/><path class="a" d="M12.129,11.355l5.5,3.951a1.664,1.664,0,0,1-1.934,2.708,1.607,1.607,0,0,1-.387-.387l-3.951-5.5a.554.554,0,0,1,.774-.774Z" transform="translate(-1.566 -1.565)"/></g></svg>