<?xml version="1.0" encoding="utf-8"?>
<!-- Generator: Adobe Illustrator 22.1.0, SVG Export Plug-In . SVG Version: 6.00 Build 0)  -->
<svg version="1.1" id="Livello_1" xmlns="http://www.w3.org/2000/svg" xmlns:xlink="http://www.w3.org/1999/xlink" x="0px" y="0px"
	 viewBox="0 0 12 12" style="enable-background:new 0 0 12 12;" xml:space="preserve">
<style type="text/css">
	.st0{fill:#191919;}
</style>
<path class="st0" d="M10,3.8H6.9l1.9-1.8C9,1.8,9,1.4,8.8,1.2C8.6,1,8.3,1,8.1,1.2L6,3.3L3.6,0.2C3.4,0,3.1-0.1,2.9,0.1
	C2.7,0.3,2.6,0.6,2.8,0.8l2.3,3H2c-1.1,0-2,0.9-2,2v0V10c0,1.1,0.9,2,2,2h8c1.1,0,2-0.9,2-2V5.8v0C12,4.7,11.1,3.8,10,3.8z M11,10
	c0,0.6-0.4,1-1,1H2c-0.6,0-1-0.4-1-1V5.8c0-0.6,0.4-1,1-1h8c0.6,0,1,0.4,1,1V10z"/>
</svg>
